<svg width="88.000000" height="88.000000" viewBox="0 0 88 88" fill="none" xmlns="http://www.w3.org/2000/svg" xmlns:xlink="http://www.w3.org/1999/xlink">
	<desc>
			Created with Pixso.
	</desc>
	<defs/>
	<path id="Vector" d="M44.28 18L44.28 69.99C58.51 69.84 70 58.26 70 44C70 29.73 58.51 18.15 44.28 18Z" fill="#FFBB54" fill-opacity="1.000000" fill-rule="nonzero"/>
	<path id="Vector" d="M44.28 18C44.18 18 44.09 18 44 18C29.64 18 18 29.64 18 44C18 58.35 29.64 70 44 70C44.09 70 44.18 69.99 44.28 69.99C56.19 69.81 65.81 58.24 65.81 44C65.81 29.75 56.19 18.18 44.28 18Z" fill="#FFD45A" fill-opacity="1.000000" fill-rule="nonzero"/>
	<path id="Vector" d="M54.3 40.88L44.13 53.88L54.58 53.88C56.37 51.59 57.44 48.71 57.44 45.59L57.44 44.02C57.44 42.29 56.03 40.88 54.3 40.88Z" fill="#B74147" fill-opacity="1.000000" fill-rule="nonzero"/>
	<path id="Vector" d="M33.69 40.88C31.96 40.88 30.55 42.29 30.55 44.02L30.55 45.59C30.55 48.71 31.62 51.59 33.41 53.88L52.98 52.17C53.82 50.22 54.3 47.98 54.3 45.59L54.3 44.02L33.69 40.88Z" fill="#FF3C1F" fill-opacity="1.000000" fill-rule="nonzero"/>
	<path id="Vector" d="M52.98 52.17L44.13 59.03C48.37 58.99 52.14 56.98 54.58 53.88C54.1 53.26 53.56 52.69 52.98 52.17Z" fill="#FA4087" fill-opacity="1.000000" fill-rule="nonzero"/>
	<path id="Vector" d="M52.98 52.17C51.24 56.22 47.93 58.97 44.13 59.03C44.08 59.03 44.04 59.03 44 59.03C39.7 59.03 35.87 57.01 33.41 53.88C35.87 50.74 39.7 48.72 44 48.72C47.45 48.72 50.6 50.03 52.98 52.17Z" fill="#FA71A3" fill-opacity="1.000000" fill-rule="nonzero"/>
	<path id="Vector" d="M51.16 40.88L49.59 45.59L52.73 45.59C53.59 45.59 54.3 44.88 54.3 44.02L54.3 40.88L51.16 40.88Z" fill="#FFF7DF" fill-opacity="1.000000" fill-rule="nonzero"/>
	<path id="Vector" d="M51.16 40.88L51.16 44.02C51.16 44.88 50.46 45.59 49.59 45.59L35.26 45.59C34.4 45.59 33.69 44.88 33.69 44.02L33.69 40.88L51.16 40.88Z" fill="#FFFFFF" fill-opacity="1.000000" fill-rule="nonzero"/>
	<path id="Vector" d="M44.78 62.95L43.21 62.95C42.78 62.95 42.43 62.6 42.43 62.17C42.43 61.74 42.78 61.38 43.21 61.38L44.78 61.38C45.21 61.38 45.56 61.74 45.56 62.17C45.56 62.6 45.21 62.95 44.78 62.95Z" fill="#FFBB54" fill-opacity="1.000000" fill-rule="nonzero"/>
	<path id="Vector" d="M52.73 29.89C51.87 29.89 51.16 30.6 51.16 31.46L51.16 36.17C51.16 37.03 51.87 37.74 52.73 37.74C53.59 37.74 54.3 37.03 54.3 36.17L54.3 31.46C54.3 30.6 53.59 29.89 52.73 29.89Z" fill="#474867" fill-opacity="1.000000" fill-rule="nonzero"/>
	<path id="Vector" d="M35.26 29.89C34.4 29.89 33.69 30.6 33.69 31.46L33.69 36.17C33.69 37.03 34.4 37.74 35.26 37.74C36.12 37.74 36.83 37.03 36.83 36.17L36.83 31.46C36.83 30.6 36.12 29.89 35.26 29.89Z" fill="#474867" fill-opacity="1.000000" fill-rule="nonzero"/>
	<g opacity="0.100000">
		<circle id="Ellipse 1" cx="44.000000" cy="44.000000" r="44.000000" fill="#DC780B" fill-opacity="1.000000"/>
	</g>
</svg>
